<svg xmlns="http://www.w3.org/2000/svg" viewBox="0 0 32 32" width="32" height="32">
  <defs>
    <linearGradient id="phaseGrad" x1="0%" y1="0%" x2="100%" y2="100%">
      <stop offset="0%" stop-color="#60A5FA"/>
      <stop offset="100%" stop-color="#A78BFA"/>
    </linearGradient>
  </defs>

  <!-- Dark background -->
  <rect width="32" height="32" fill="#0F172A" rx="6"/>

  <!-- Four phase arcs -->
  <path d="M16 3 A13 13 0 0 1 29 16" fill="none" stroke="#60A5FA" stroke-width="2.5" stroke-linecap="round"/>
  <path d="M29 16 A13 13 0 0 1 16 29" fill="none" stroke="#818CF8" stroke-width="2.5" stroke-linecap="round"/>
  <path d="M16 29 A13 13 0 0 1 3 16" fill="none" stroke="#A78BFA" stroke-width="2.5" stroke-linecap="round"/>
  <path d="M3 16 A13 13 0 0 1 16 3" fill="none" stroke="#C084FC" stroke-width="2.5" stroke-linecap="round"/>

  <!-- Center shield with check -->
  <path d="M16 8 L22 10.5 L22 16 C22 20 19.5 23 16 24.5 C12.5 23 10 20 10 16 L10 10.5 Z" fill="url(#phaseGrad)"/>
  <path d="M12.5 15.5 L15 18 L19.5 13.5" fill="none" stroke="#0F172A" stroke-width="1.5" stroke-linecap="round" stroke-linejoin="round"/>
</svg>
